HIERARCHY
ROOT joint_Root
{
	OFFSET 0.0 0.0 0.0
	CHANNELS 6 Xposition Yposition Zposition Zrotation Xrotation Yrotation 
	JOINT Hips
	{
		OFFSET -17.1583 93.1646 452.98
		CHANNELS 6 Xposition Yposition Zposition Zrotation Xrotation Yrotation 
		JOINT Spine
		{
			OFFSET 15.7357 0.0 0.0
			CHANNELS 6 Xposition Yposition Zposition Zrotation Xrotation Yrotation 
			JOINT Chest
			{
				OFFSET 8.98455 -0.406207 0.0
				CHANNELS 6 Xposition Yposition Zposition Zrotation Xrotation Yrotation 
				JOINT Neck
				{
					OFFSET 16.3773 0.0 0.0
					CHANNELS 6 Xposition Yposition Zposition Zrotation Xrotation Yrotation 
					JOINT Head
					{
						OFFSET 6.45672 0.0 0.0
						CHANNELS 6 Xposition Yposition Zposition Zrotation Xrotation Yrotation 
						End Site
						{
							OFFSET 0.0 0.0 0.0
						}
					}
				}
				JOINT Shoulder_L
				{
					OFFSET 12.9942 -0.242716 4.98039
					CHANNELS 6 Xposition Yposition Zposition Zrotation Xrotation Yrotation 
					JOINT UpperArm_L
					{
						OFFSET 5.34809 0.0 0.0
						CHANNELS 6 Xposition Yposition Zposition Zrotation Xrotation Yrotation 
						JOINT LowerArm_L
						{
							OFFSET 24.3286 1.87007e-05 0.0
							CHANNELS 6 Xposition Yposition Zposition Zrotation Xrotation Yrotation 
							JOINT Hand_L
							{
								OFFSET 22.2916 0.0 0.0
								CHANNELS 6 Xposition Yposition Zposition Zrotation Xrotation Yrotation 
								End Site
								{
									OFFSET 0.0 0.0 0.0
								}
							}
						}
					}
				}
				JOINT Shoulder_R
				{
					OFFSET 12.9945 -0.242716 -4.98039
					CHANNELS 6 Xposition Yposition Zposition Zrotation Xrotation Yrotation 
					JOINT UpperArm_R
					{
						OFFSET -5.34813 0.0 0.0
						CHANNELS 6 Xposition Yposition Zposition Zrotation Xrotation Yrotation 
						JOINT LowerArm_R
						{
							OFFSET -24.3289 0.000322201 0.0
							CHANNELS 6 Xposition Yposition Zposition Zrotation Xrotation Yrotation 
							JOINT Hand_R
							{
								OFFSET -22.2915 -0.000108084 0.0
								CHANNELS 6 Xposition Yposition Zposition Zrotation Xrotation Yrotation 
								End Site
								{
									OFFSET 0.0 0.0 0.0
								}
							}
						}
					}
				}
			}
		}
		JOINT UpperLeg_L
		{
			OFFSET -2.19248 -6.46944 0.0
			CHANNELS 6 Xposition Yposition Zposition Zrotation Xrotation Yrotation 
			JOINT LowerLeg_L
			{
				OFFSET 39.0811 0.0 -1.23785e-05
				CHANNELS 6 Xposition Yposition Zposition Zrotation Xrotation Yrotation 
				JOINT Foot_L
				{
					OFFSET 40.9854 0.0 -1.26872e-05
					CHANNELS 6 Xposition Yposition Zposition Zrotation Xrotation Yrotation 
					JOINT Toes_L
					{
						OFFSET 11.7543 0.0 0.0
						CHANNELS 6 Xposition Yposition Zposition Zrotation Xrotation Yrotation 
						End Site
						{
							OFFSET 0.0 0.0 0.0
						}
					}
				}
			}
		}
		JOINT UpperLeg_R
		{
			OFFSET -2.19251 6.46944 0.0
			CHANNELS 6 Xposition Yposition Zposition Zrotation Xrotation Yrotation 
			JOINT LowerLeg_R
			{
				OFFSET -39.0811 -0.00228153 -0.0401928
				CHANNELS 6 Xposition Yposition Zposition Zrotation Xrotation Yrotation 
				JOINT Foot_R
				{
					OFFSET -40.9854 0.0 0.0
					CHANNELS 6 Xposition Yposition Zposition Zrotation Xrotation Yrotation 
					JOINT Toes_R
					{
						OFFSET -11.7543 0.0 0.0
						CHANNELS 6 Xposition Yposition Zposition Zrotation Xrotation Yrotation 
						End Site
						{
							OFFSET 0.0 0.0 0.0
						}
					}
				}
			}
		}
	}
}
MOTION
Frames:	9
Frame Time:	0.0333333
0.000000 0.000000 0.000000 0.000000 0.000000 -0.000000 -3.725550 91.366800 -517.694000 94.898000 -3.302590 -6.878190 15.735700 0.000005 -0.000001 136.515000 85.354800 -137.975000 8.984550 -0.406207 -0.000000 -1.285200 6.854500 -2.844510 16.377300 -0.000001 -0.000001 1.151510 1.582080 -1.187500 6.456720 -0.000001 -0.000000 1.439650 -0.620890 -6.456670 12.994200 -0.242716 4.980390 -93.163200 8.061900 -68.492700 5.348090 -0.000007 -0.000001 -69.027000 -12.932700 16.235200 24.328600 0.000019 0.000005 13.278600 27.640500 -26.962300 22.291600 -0.000001 0.000005 51.202100 4.612390 14.701100 12.994500 -0.242716 -4.980390 88.802600 4.455120 -74.939800 -5.348130 -0.000001 -0.000004 -75.248100 17.230000 -8.571470 -24.328900 0.000322 -0.000009 6.581000 3.694360 -60.820500 -22.291500 -0.000108 -0.000004 45.893800 5.387550 -2.537560 -2.192480 -6.469440 -0.000000 179.267000 -2.675680 -30.978000 39.081100 -0.000007 -0.000012 0.025113 -0.119075 11.909600 40.985400 -0.000006 -0.000013 -6.587690 9.556550 -64.548500 11.754300 -0.000000 0.000003 0.002316 0.105808 -12.286000 -2.192510 6.469440 -0.000001 178.121000 36.160600 -178.510000 -39.081100 -0.002282 -0.040193 -0.065207 0.247129 15.500400 -40.985400 0.000008 0.000006 -13.657300 -13.903700 -81.024400 -11.754300 -0.000006 -0.000006 -0.002410 0.201405 -8.401630
0.000000 0.000000 0.000000 0.000000 0.000000 -0.000000 -3.414690 90.864700 -515.202000 94.495400 -4.387490 -6.880260 15.735700 0.000005 -0.000001 138.938000 85.532100 -140.349000 8.984550 -0.406207 -0.000000 -1.814320 6.853940 -2.714940 16.377300 -0.000001 -0.000001 1.213200 2.049020 -1.254860 6.456720 -0.000001 -0.000000 1.606850 0.073165 -6.629080 12.994200 -0.242716 4.980390 -93.156300 8.049670 -68.505600 5.348090 -0.000007 -0.000001 -69.771600 -11.968400 15.431400 24.328600 0.000019 0.000005 12.774800 27.908500 -25.845700 22.291600 -0.000001 0.000005 50.833900 4.603010 14.862900 12.994500 -0.242716 -4.980390 88.881500 4.166730 -74.960000 -5.348130 -0.000001 -0.000004 -75.389200 19.248500 -8.192430 -24.328900 0.000322 -0.000009 6.234910 3.802020 -58.750600 -22.291500 -0.000108 -0.000004 45.540500 5.392280 -2.686140 -2.192480 -6.469440 -0.000000 178.318000 -5.150770 -31.813400 39.081100 -0.000007 -0.000012 0.027862 -0.127498 12.327200 40.985400 -0.000006 -0.000013 -7.571330 9.386250 -64.640300 11.754300 -0.000000 0.000003 0.002226 0.110980 -12.076300 -2.192510 6.469440 -0.000001 176.754000 34.037800 -177.151000 -39.081100 -0.002282 -0.040193 -0.073294 0.251890 16.919000 -40.985400 0.000008 0.000006 -15.379600 -13.187200 -81.427900 -11.754300 -0.000006 -0.000006 -0.001250 0.186571 -9.004800
0.000000 0.000000 0.000000 0.000000 0.000000 -0.000000 -3.086120 90.381000 -512.291000 93.823600 -5.665640 -6.815030 15.735700 0.000005 -0.000001 141.982000 85.790600 -143.208000 8.984550 -0.406207 -0.000000 -2.514490 6.740340 -2.307040 16.377300 -0.000001 -0.000001 1.451860 2.725570 -1.260980 6.456720 -0.000001 -0.000000 1.933360 1.074780 -6.888480 12.994200 -0.242716 4.980390 -93.171500 8.101960 -68.537200 5.348090 -0.000007 -0.000001 -70.111900 -11.029500 14.562300 24.328600 0.000019 0.000005 12.234600 27.875800 -24.880500 22.291600 -0.000001 0.000005 50.664000 4.608290 14.771700 12.994500 -0.242716 -4.980390 88.940400 3.951820 -74.976800 -5.348130 -0.000001 -0.000004 -75.451200 20.796700 -7.315980 -24.328900 0.000322 -0.000009 5.930940 3.945300 -56.488400 -22.291500 -0.000108 -0.000004 44.784200 5.396700 -2.830610 -2.192480 -6.469440 -0.000000 177.554000 -7.773560 -32.586000 39.081100 -0.000007 -0.000012 0.030850 -0.121775 14.216400 40.985400 -0.000006 -0.000013 -8.353830 10.738800 -64.709000 11.754300 -0.000000 0.000003 0.002207 0.111943 -12.037300 -2.192510 6.469440 -0.000001 175.400000 32.024100 -175.685000 -39.081100 -0.002282 -0.040193 -0.081803 0.252981 18.598000 -40.985400 0.000008 0.000006 -17.421100 -12.357400 -81.095100 -11.754300 -0.000006 -0.000006 0.000336 0.161805 -10.010900
0.000000 0.000000 0.000000 0.000000 0.000000 -0.000000 -2.576900 89.979400 -509.027000 93.217300 -7.331700 -7.162820 15.735700 0.000005 -0.000001 148.043000 86.195600 -149.072000 8.984550 -0.406207 -0.000000 -3.690870 6.554700 -1.849370 16.377300 -0.000001 -0.000001 1.974000 3.497990 -1.268280 6.456720 -0.000001 -0.000000 2.294650 2.464240 -7.040980 12.994200 -0.242716 4.980390 -93.262500 8.321220 -68.501700 5.348090 -0.000007 -0.000001 -69.932500 -10.223400 13.749700 24.328600 0.000019 0.000005 11.866700 27.823600 -24.236600 22.291600 -0.000001 0.000005 50.578300 4.608690 14.764800 12.994500 -0.242716 -4.980390 88.939700 3.935940 -74.910100 -5.348130 -0.000001 -0.000004 -75.175100 22.147300 -6.393880 -24.328900 0.000322 -0.000009 5.544430 4.146160 -53.328000 -22.291500 -0.000108 -0.000004 43.622000 5.402630 -3.022530 -2.192480 -6.469440 -0.000000 177.236000 -9.537440 -33.753800 39.081100 -0.000007 -0.000012 0.035289 -0.112522 17.412700 40.985400 -0.000006 -0.000013 -10.436100 13.353600 -62.754400 11.754300 -0.000000 0.000003 0.002254 0.109467 -12.137700 -2.192510 6.469440 -0.000001 174.117000 29.537400 -175.046000 -39.081100 -0.002282 -0.040193 -0.083091 0.228998 20.673800 -40.985400 0.000008 0.000006 -19.230000 -11.978700 -79.950800 -11.754300 -0.000006 -0.000006 0.002194 0.112699 -12.003100
0.000000 0.000000 0.000000 0.000000 0.000000 -0.000000 -1.877840 89.666100 -505.314000 93.017600 -8.865510 -7.555090 15.735700 0.000005 -0.000001 155.754000 86.728100 -156.676000 8.984550 -0.406207 -0.000000 -5.044500 6.063230 -1.579180 16.377300 -0.000001 -0.000001 2.553380 4.352420 -1.229880 6.456720 -0.000001 -0.000000 2.819860 3.964140 -7.008260 12.994200 -0.242716 4.980390 -93.347300 8.579550 -68.592200 5.348090 -0.000007 -0.000001 -69.415400 -9.526300 12.957600 24.328600 0.000019 0.000005 11.574000 27.594200 -23.851500 22.291600 -0.000001 0.000005 50.391000 4.615710 14.643600 12.994500 -0.242716 -4.980390 88.876600 4.089780 -74.625700 -5.348130 -0.000001 -0.000004 -74.529800 23.549900 -5.672230 -24.328900 0.000322 -0.000009 5.583520 4.892030 -48.913500 -22.291500 -0.000108 -0.000004 42.412100 5.407240 -3.172930 -2.192480 -6.469440 -0.000000 177.177000 -8.776670 -35.797700 39.081100 -0.000007 -0.000012 0.030770 -0.070494 23.581000 40.985400 -0.000006 -0.000013 -8.407590 16.138800 -59.627100 11.754300 -0.000000 0.000003 0.002218 0.111403 -12.059200 -2.192510 6.469440 -0.000001 172.484000 26.589400 -174.878000 -39.081100 -0.002282 -0.040193 -0.072826 0.177482 23.219900 -40.985400 0.000008 0.000006 -20.658900 -12.669000 -78.031400 -11.754300 -0.000006 -0.000006 0.001862 0.041751 -14.879600
0.000000 0.000000 0.000000 0.000000 0.000000 -0.000000 -1.037700 89.378100 -501.132000 93.371300 -9.877810 -6.996230 15.735700 0.000005 -0.000001 158.928000 87.230000 -159.833000 8.984550 -0.406207 -0.000000 -5.745330 5.269010 -1.547170 16.377300 -0.000001 -0.000001 3.113620 5.132160 -1.321660 6.456720 -0.000001 -0.000000 3.314120 5.377280 -6.877270 12.994200 -0.242716 4.980390 -93.401100 8.789300 -68.747000 5.348090 -0.000007 -0.000001 -68.986400 -8.385770 11.617800 24.328600 0.000019 0.000005 11.267700 27.474600 -23.356700 22.291600 -0.000001 0.000005 50.272000 4.617190 14.617800 12.994500 -0.242716 -4.980390 88.829000 4.176670 -74.323400 -5.348130 -0.000001 -0.000004 -73.986000 23.891000 -4.906870 -24.328900 0.000322 -0.000009 6.455490 6.852070 -43.491200 -22.291500 -0.000108 -0.000004 40.878000 5.406400 -3.146610 -2.192480 -6.469440 -0.000000 177.293000 -5.743200 -36.194000 39.081100 -0.000007 -0.000012 0.059629 -0.103619 29.918500 40.985400 -0.000006 -0.000013 -5.483310 12.857000 -61.177000 11.754300 -0.000000 0.000003 0.001948 0.122849 -11.595000 -2.192510 6.469440 -0.000001 170.061000 23.234000 -174.246000 -39.081100 -0.002282 -0.040193 -0.048990 0.104839 26.512300 -40.985400 0.000008 0.000006 -21.587100 -14.404200 -74.882900 -11.754300 -0.000006 -0.000006 -0.003480 -0.045920 -18.440800
0.000000 0.000000 0.000000 0.000000 0.000000 -0.000000 -0.074783 89.229300 -496.750000 94.208200 -10.909000 -6.063180 15.735700 0.000005 -0.000001 161.139000 87.543100 -162.169000 8.984550 -0.406207 -0.000000 -6.145620 4.767660 -1.808770 16.377300 -0.000001 -0.000001 3.614640 5.735000 -1.562850 6.456720 -0.000001 -0.000000 3.846270 6.477410 -6.533350 12.994200 -0.242716 4.980390 -93.323100 8.672940 -68.940500 5.348090 -0.000007 -0.000001 -68.984500 -7.111260 9.329650 24.328600 0.000019 0.000005 10.630800 27.044000 -22.432300 22.291600 -0.000001 0.000005 50.292000 4.639010 14.236900 12.994500 -0.242716 -4.980390 88.826400 4.138950 -74.154400 -5.348130 -0.000001 -0.000004 -73.823300 22.814400 -3.963940 -24.328900 0.000322 -0.000009 6.232280 8.381940 -36.844600 -22.291500 -0.000108 -0.000004 40.179400 5.400810 -2.963830 -2.192480 -6.469440 -0.000000 176.278000 -3.887780 -34.833500 39.081100 -0.000007 -0.000012 0.078550 -0.117258 33.817300 40.985400 -0.000006 -0.000013 -4.274350 10.257000 -62.559700 11.754300 -0.000000 0.000003 0.000894 0.150912 -10.456500 -2.192510 6.469440 -0.000001 167.838000 18.847200 -174.669000 -39.081100 -0.002282 -0.040193 0.010331 -0.011700 31.004000 -40.985400 0.000008 0.000006 -21.109000 -18.364100 -70.647800 -11.754300 -0.000006 -0.000006 -0.013635 -0.129042 -21.836000
0.000000 0.000000 0.000000 0.000000 0.000000 -0.000000 0.802171 89.232500 -492.396000 94.907700 -11.909800 -5.015690 15.735700 0.000005 -0.000001 164.691000 87.783400 -165.759000 8.984550 -0.406207 -0.000000 -6.564480 4.401650 -1.888910 16.377300 -0.000001 -0.000001 4.434740 6.283750 -1.730380 6.456720 -0.000001 -0.000000 4.465620 7.329730 -6.449470 12.994200 -0.242716 4.980390 -93.282200 8.594230 -69.005300 5.348090 -0.000007 -0.000001 -69.004900 -6.264680 6.713820 24.328600 0.000019 0.000005 10.648700 27.506700 -22.151700 22.291600 -0.000001 0.000005 50.428300 4.606500 14.802700 12.994500 -0.242716 -4.980390 88.786300 4.211730 -73.908900 -5.348130 -0.000001 -0.000004 -73.288000 21.105900 -2.944080 -24.328900 0.000322 -0.000009 4.964270 8.900010 -29.315300 -22.291500 -0.000108 -0.000004 39.721200 5.401170 -2.975690 -2.192480 -6.469440 -0.000000 174.752000 -3.316430 -32.272900 39.081100 -0.000007 -0.000012 0.128039 -0.173423 36.438500 40.985400 -0.000006 -0.000013 -1.864820 8.676640 -66.596700 11.754300 -0.000000 0.000003 0.000069 0.166452 -9.825690 -2.192510 6.469440 -0.000001 167.082000 13.317900 -176.753000 -39.081100 -0.002282 -0.040193 0.102425 -0.132443 36.816300 -40.985400 0.000008 0.000006 -15.974000 -25.252100 -63.049200 -11.754300 -0.000006 -0.000006 -0.027440 -0.205482 -24.985400
0.000000 0.000000 0.000000 0.000000 0.000000 -0.000000 1.572390 89.392700 -488.362000 95.421900 -11.987500 -3.703490 15.735700 0.000005 -0.000001 161.832000 88.251400 -162.805000 8.984550 -0.406207 -0.000000 -6.652370 3.438960 -1.749730 16.377300 -0.000001 -0.000001 5.122190 6.790980 -2.165770 6.456720 -0.000001 -0.000000 5.382180 8.162230 -6.361470 12.994200 -0.242716 4.980390 -93.319500 8.737650 -69.102800 5.348090 -0.000007 -0.000001 -68.925400 -5.878510 4.267510 24.328600 0.000019 0.000005 11.273300 27.400200 -23.419600 22.291600 -0.000001 0.000005 50.361700 4.578350 15.285100 12.994500 -0.242716 -4.980390 88.721200 4.350070 -73.600200 -5.348130 -0.000001 -0.000004 -72.236200 19.163300 -2.276010 -24.328900 0.000322 -0.000009 3.818580 9.761710 -21.497700 -22.291500 -0.000108 -0.000004 40.251800 5.393160 -2.717200 -2.192480 -6.469440 -0.000000 173.419000 -2.466100 -28.582200 39.081100 -0.000007 -0.000012 0.176852 -0.232611 37.245200 40.985400 -0.000006 -0.000013 -0.304842 7.637980 -69.995100 11.754300 -0.000000 0.000003 -0.000826 0.180536 -9.253570 -2.192510 6.469440 -0.000001 167.028000 8.998760 179.956000 -39.081100 -0.002282 -0.040193 0.197801 -0.202717 43.820000 -40.985400 0.000008 0.000006 -8.349670 -31.723600 -50.554300 -11.754300 -0.000006 -0.000006 -0.018288 -0.157613 -23.009500
